<svg xmlns="http://www.w3.org/2000/svg" width="240" height="22" viewBox="0 0 240 22">
<g id="active-center" transform="translate(0,0)"><rect x="0" y="0" width="26" height="22" fill="#000000" fill-opacity="0"/><path d="M13 6.5 L17.5 11 L13 15.5 L8.5 11 Z" stroke="#958c8c" stroke-width="1.4" fill="none" stroke-linecap="square"/></g>
<g id="hover-center" transform="translate(30,0)"><rect x="0" y="0" width="26" height="22" fill="#000000" fill-opacity="0"/><rect x="0" y="0" width="26" height="22" fill="#260000"/><rect x="0" y="21" width="26" height="1" fill="#b30000"/><path d="M13 6.5 L17.5 11 L13 15.5 L8.5 11 Z" stroke="#ece6e6" stroke-width="1.4" fill="none" stroke-linecap="square"/></g>
<g id="pressed-center" transform="translate(60,0)"><rect x="0" y="0" width="26" height="22" fill="#000000" fill-opacity="0"/><rect x="0" y="0" width="26" height="22" fill="#5c0000"/><rect x="0" y="21" width="26" height="1" fill="#e01b1b"/><path d="M13 6.5 L17.5 11 L13 15.5 L8.5 11 Z" stroke="#ffffff" stroke-width="1.4" fill="none" stroke-linecap="square"/></g>
<g id="inactive-center" transform="translate(90,0)"><rect x="0" y="0" width="26" height="22" fill="#000000" fill-opacity="0"/><path d="M13 6.5 L17.5 11 L13 15.5 L8.5 11 Z" stroke="#4d4747" stroke-width="1.4" fill="none" stroke-linecap="square"/></g>
<g id="hover-inactive-center" transform="translate(120,0)"><rect x="0" y="0" width="26" height="22" fill="#000000" fill-opacity="0"/><rect x="0" y="0" width="26" height="22" fill="#260000"/><rect x="0" y="21" width="26" height="1" fill="#b30000"/><path d="M13 6.5 L17.5 11 L13 15.5 L8.5 11 Z" stroke="#ece6e6" stroke-width="1.4" fill="none" stroke-linecap="square"/></g>
<g id="pressed-inactive-center" transform="translate(150,0)"><rect x="0" y="0" width="26" height="22" fill="#000000" fill-opacity="0"/><rect x="0" y="0" width="26" height="22" fill="#5c0000"/><rect x="0" y="21" width="26" height="1" fill="#e01b1b"/><path d="M13 6.5 L17.5 11 L13 15.5 L8.5 11 Z" stroke="#ffffff" stroke-width="1.4" fill="none" stroke-linecap="square"/></g>
<g id="deactivated-center" transform="translate(180,0)"><rect x="0" y="0" width="26" height="22" fill="#000000" fill-opacity="0"/><path d="M13 6.5 L17.5 11 L13 15.5 L8.5 11 Z" stroke="#2b2828" stroke-width="1.4" fill="none" stroke-linecap="square"/></g>
<g id="deactivated-inactive-center" transform="translate(210,0)"><rect x="0" y="0" width="26" height="22" fill="#000000" fill-opacity="0"/><path d="M13 6.5 L17.5 11 L13 15.5 L8.5 11 Z" stroke="#222020" stroke-width="1.4" fill="none" stroke-linecap="square"/></g>
</svg>
